<?xml version="1.0" encoding="windows-1252"?>
<!-- Generator: Adobe Illustrator 19.0.0, SVG Export Plug-In . SVG Version: 6.00 Build 0)  -->
<svg version="1.1" id="Capa_1" xmlns="http://www.w3.org/2000/svg" xmlns:xlink="http://www.w3.org/1999/xlink" x="0px" y="0px" viewBox="0 0 512.001 512.001" style="enable-background:new 0 0 512.001 512.001;" xml:space="preserve">
<polygon style="fill:#E1EFFB;" points="388.835,131.362 255.97,42.979 123.105,131.362 123.105,340.879 388.895,340.879   388.895,131.362 "/>
<polygon style="fill:#CCDFED;" points="388.835,131.362 255.97,42.979 223.722,64.431 343.38,144.029 343.44,144.029   343.44,340.879 388.895,340.879 388.895,131.362 "/>
<path style="fill:#FF4C4C;" d="M98.259,166.849L253.754,63.413c1.361-0.905,3.132-0.905,4.493,0L413.742,166.85  c4.379,2.913,10.078,2.913,14.457,0l0,0c7.763-5.164,7.763-16.569,0-21.733L258.247,32.063c-1.361-0.905-3.132-0.905-4.493,0  L83.802,145.116c-7.764,5.164-7.764,16.569,0,21.733l0,0C88.18,169.762,93.88,169.762,98.259,166.849z"/>
<path style="fill:#FFB125;" d="M295.496,185.066h-78.993c-3.291,0-5.958,2.668-5.958,5.958v149.93h90.909v-149.93  C301.455,187.733,298.787,185.066,295.496,185.066z"/>
<path style="fill:#FF901D;" d="M295.496,185.066h-45.455c3.291,0,5.958,2.667,5.958,5.958v149.93h45.455v-149.93  C301.455,187.733,298.787,185.066,295.496,185.066z"/>
<path style="fill:#2D5871;" d="M413.928,321.83H98.072c-6.676,0-12.088,5.412-12.088,12.088l0,0c0,6.676,5.412,12.088,12.088,12.088  h315.857c6.676,0,12.088-5.412,12.088-12.088l0,0C426.016,327.242,420.604,321.83,413.928,321.83z"/>
<path style="fill:#FFB125;" d="M277.605,239.19c-4.142,0-7.5,3.357-7.5,7.5v16.319c0,4.143,3.358,7.5,7.5,7.5s7.5-3.357,7.5-7.5  V246.69C285.105,242.548,281.747,239.19,277.605,239.19z"/>
<g>
	<path style="fill:#FED9A8;" d="M358.925,459.01l3.201,8.331H270.07l7.446-80.555c4.718-21.663,20.379-39.304,41.329-46.556   l43.459-15.044l41.147-42.561c4.247-4.393,11.039-5.451,16.219-2.21c5.781,3.618,7.685,11.064,4.461,16.981l-11.322,20.777   l29.121-14.198l27.802-33.514l20.15-44.456c1.41-3.112,5.238-6.475,8.505-7.473l0,0c8.109-2.479,15.669,5.162,13.104,13.244   l-16.504,52.013c-4.668,14.711-12.22,28.345-22.214,40.105l-16.33,19.215c-10.865,12.785-24.351,23.102-39.585,30.134   c-17.133,7.909-35.075,17.831-47.675,31.451C355.661,419.31,351.783,440.423,358.925,459.01z"/>
	<path style="fill:#FED9A8;" d="M153.075,459.01l-3.201,8.331h92.056l-7.446-80.555c-4.718-21.663-20.379-39.304-41.329-46.556   l-43.459-15.044l-41.147-42.561c-4.247-4.393-11.039-5.451-16.219-2.21c-5.781,3.618-7.685,11.064-4.461,16.981l11.322,20.777   L70.07,303.976l-27.802-33.514l-20.15-44.456c-1.41-3.112-5.238-6.475-8.505-7.473l0,0c-8.109-2.479-15.669,5.162-13.104,13.244   l16.504,52.013c4.668,14.711,12.22,28.345,22.214,40.105l16.33,19.215c10.865,12.785,24.351,23.102,39.585,30.134   c17.133,7.909,35.075,17.831,47.675,31.451C156.339,419.31,160.217,440.423,153.075,459.01z"/>
</g>
<g>
	<path style="fill:#F4C892;" d="M91.936,314.637l21.506,38.818c3.276,5.913,9.503,9.582,16.262,9.582l0,0   c1.685,0,2.635-1.935,1.606-3.268l-32.119-41.594L91.936,314.637z"/>
	<path style="fill:#F4C892;" d="M412.842,318.158l-0.027,0.016l-32.119,41.594c-1.03,1.333-0.079,3.269,1.606,3.269   c6.76,0,12.986-3.669,16.262-9.582l21.519-38.828L412.842,318.158z"/>
	<path style="fill:#F4C892;" d="M234.483,386.786c-4.718-21.663-20.379-39.304-41.329-46.556l-43.459-15.044l-41.142-42.556   c-4.087-4.228-10.555-5.414-15.683-2.535c-2.047,1.149-3.647,2.762-4.756,4.624c4.709-1.62,10.101-0.3,13.684,3.406l41.147,42.561   l43.459,26.647c20.951,7.252,7.481,73.673,7.481,73.673l0,0c-2.579,5.24-7.912,8.559-13.752,8.559h-23.544   c0.061,6.538-1.09,13.137-3.514,19.445l-3.201,8.331H176h65.93L234.483,386.786z"/>
	<path style="fill:#F4C892;" d="M500.239,218.143c1.063,2.25,1.349,4.916,0.487,7.634l-16.504,52.013   c-4.668,14.711-12.22,28.344-22.214,40.105l-16.33,19.215c-10.865,12.785-24.351,23.102-39.585,30.134   c-10.412,4.806-38.961,15.27-62.587,25.797c-14.22,6.336-24.88,18.126-30.003,32.256c-3.089,8.518-11.076,14.269-20.137,14.269   h-20.727l-2.568,27.776h40.041h52.015l-3.201-8.331c-0.273-0.71-0.524-1.424-0.765-2.141c-0.066-0.195-0.128-0.391-0.191-0.587   c-0.187-0.578-0.364-1.159-0.53-1.741c-0.044-0.153-0.09-0.306-0.132-0.459c-0.207-0.753-0.401-1.509-0.574-2.267   c-0.002-0.009-0.004-0.019-0.006-0.028c-0.173-0.759-0.326-1.521-0.465-2.284c-0.016-0.088-0.031-0.175-0.047-0.263   c-0.567-3.212-0.835-6.451-0.804-9.676h-0.013c0.105-12.587,4.708-24.95,13.481-34.54c12.567-13.738,30.572-23.734,47.785-31.692   c15.295-7.071,28.862-17.379,39.775-30.218c5.337-6.28,11.164-13.136,16.337-19.223c9.995-11.76,17.544-25.391,22.212-40.102   l16.504-52.013C513.859,224.315,507.596,217.236,500.239,218.143z"/>
</g>
<g>
	<path style="fill:#2D5871;" d="M155.098,450.065h87.01c5.279,0,9.558,4.279,9.558,9.558v11.435c0,5.279-4.279,9.558-9.558,9.558   h-87.01c-5.279,0-9.558-4.279-9.558-9.558v-11.435C145.54,454.344,149.82,450.065,155.098,450.065z"/>
	<path style="fill:#2D5871;" d="M272.828,450.065h87.01c5.279,0,9.558,4.279,9.558,9.558v11.435c0,5.279-4.279,9.558-9.558,9.558   h-87.01c-5.279,0-9.558-4.279-9.558-9.558v-11.435C263.27,454.344,267.549,450.065,272.828,450.065z"/>
</g>
<g>
</g>
<g>
</g>
<g>
</g>
<g>
</g>
<g>
</g>
<g>
</g>
<g>
</g>
<g>
</g>
<g>
</g>
<g>
</g>
<g>
</g>
<g>
</g>
<g>
</g>
<g>
</g>
<g>
</g>
</svg>