<svg height="512" viewBox="0 0 56 58" width="512" xmlns="http://www.w3.org/2000/svg"><g id="Page-1" fill="none" fill-rule="evenodd"><g id="016---Volcano" fill-rule="nonzero"><path id="Shape" d="m45 9c0 1.6568542-1.3431458 3-3 3h-11v5h-6v-5h-11c-1.6568542 0-3-1.3431458-3-3 0-1.65685425 1.3431458-3 3-3 .3486841.00121686.6942637.06558954 1.02.19 0-.06-.02-.13-.02-.19.0036547-1.32175195.8719313-2.48537967 2.1379449-2.86518375s2.631434.11371453 3.3620551 1.21518375c.7685749-1.18537853 2.2675136-1.6626942 3.58-1.14.378554-1.86425918 2.0176947-3.20401005 3.92-3.20401005s3.541446 1.33975087 3.92 3.20401005c1.3124864-.5226942 2.8114251-.04537853 3.58 1.14.7306211-1.10146922 2.0960415-1.59498783 3.3620551-1.21518375s2.1342902 1.5434318 2.1379449 2.86518375c0 .06-.02.13-.02.19.3257363-.12441046.6713159-.18878314 1.02-.19 1.6568542 0 3 1.34314575 3 3z" fill="#d25627"/><path id="Shape" d="m25 11v1h-2v-1c-.0032948-1.10320187-.8967981-1.9967052-2-2-.5522847 0-1-.44771525-1-1s.4477153-1 1-1c2.209139 0 4 1.790861 4 4z" fill="#e57e25"/><path id="Shape" d="m36 8c0 .55228475-.4477153 1-1 1-1.1032019.0032948-1.9967052.89679813-2 2v1h-2v-1c0-2.209139 1.790861-4 4-4 .5522847 0 1 .44771525 1 1z" fill="#e57e25"/><path id="Shape" d="m14.26 37.68c-.5794735 1.8422628-1.3363539 3.6239459-2.26 5.32-3.051 5.5-8.236 10.677-11.047 13.27-.29957778.2804733-.39738692.715506-.24668885 1.0972156.15069806.3817096.51930843.6326009.92968885.6327844h52.748c.409271-.0002842.7770585-.249931.928412-.6301874s.0557189-.8143592-.241412-1.0958126c-2.837825-2.6236161-5.4568477-5.4744077-7.831-8.524-1.1662842-1.5052143-2.2223633-3.0926749-3.16-4.75l-15-19.083z" fill="#805333"/><path id="Shape" d="m47.24 47.75c-1.0058584.5879705-2.0998763 1.0100453-3.24 1.25-9 2-10-16-12-19s-7-2-7 4-3 12-8 10c-1.67-.67-3-3-2.74-6.32 1.6792389-5.7682016 2.5871325-11.7333991 2.7-17.74.0360518-1.079476.9199268-1.9368348 2-1.94h2.99c.0082797-.0360478.0116435-.0730501.01-.11.0498223-1.0614151.9274276-1.8949196 1.99-1.89h8.1c1.0625724-.0049196 1.9401777.8285849 1.99 1.89-.0016435.0369499.0017203.0739522.01.11h3c1.0760353-.0004892 1.9575568.8544538 1.99 1.93.18 5.06 1.01 15.81 5.04 23.07.9376367 1.6573251 1.9937158 3.2447857 3.16 4.75z" fill="#f29c1f"/><path id="Shape" d="m21.95 18v.05c-.1390863 2.73544-.4631602 5.4583295-.97 8.15-.0950537.4656663-.5047314.800097-.98.8-.0670388-.0021875-.1338555-.0088692-.2-.02-.2599387-.0529946-.4881678-.2071045-.6344551-.428411-.1462874-.2213065-.1986434-.4916715-.1455449-.751589.4818373-2.5766207.792517-5.1823217.93-7.8z" fill="#e57e25"/><path id="Shape" d="m36.2 26.98c-.0661445.0111308-.1329612.0178125-.2.02-.4752686.000097-.8849463-.3343337-.98-.8-.5068398-2.6916705-.8309137-5.41456-.97-8.15v-.05h2c.1366386 2.6177507.447325 5.2235075.93 7.8.0530985.2599175.0007425.5302825-.1455449.751589-.1462873.2213065-.3745164.3754164-.6344551.428411z" fill="#e57e25"/><g fill="#603e26"><path id="Shape" d="m16.86 50.51c-1.5876977 2.6655393-3.4260223 5.1735632-5.49 7.49h-2.79l.71-.71c2.2305254-2.3772788 4.1923594-4.9930575 5.85-7.8.1789271-.313992.5133479-.5070131.8747359-.5048805.3613881.0021327.6935075.1990872.8687164.515169.1752089.3160819.1662428.7021052-.0234523 1.0097115z"/><path id="Shape" d="m29 43c0 3.81-1.71 13.52-1.98 15h-2.03l.03-.18c.02-.11 1.98-10.96 1.98-14.82 0-.5522847.4477153-1 1-1s1 .4477153 1 1z"/><path id="Shape" d="m42.79 58h-3.38c-2.0700967-1.7936142-3.5888924-4.1376916-4.38-6.76-.1087346-.5260968.2176311-1.0441035.7391219-1.1731322.5214908-.1290286 1.051749.1770299 1.2008781.6931322.9760228 3.0510383 3.0500215 5.6310642 5.82 7.24z"/></g></g></g></svg>