<?xml version="1.0" encoding="iso-8859-1"?>
<!-- Generator: Adobe Illustrator 19.0.0, SVG Export Plug-In . SVG Version: 6.00 Build 0)  -->
<svg version="1.1" id="Capa_1" xmlns="http://www.w3.org/2000/svg" xmlns:xlink="http://www.w3.org/1999/xlink" x="0px" y="0px"
	 viewBox="0 0 512 512" style="enable-background:new 0 0 512 512;" xml:space="preserve">
<g>
	<path style="fill:#FFDBA9;" d="M384.35,128.35c0,36.053-14.961,70.035-41.293,94.317v54.024H168.943v-54.024
		c-26.332-24.282-41.293-58.264-41.293-94.317C127.65,57.574,185.225,0,256,0S384.35,57.574,384.35,128.35z"/>
	<path style="fill:#FFDBA9;" d="M453.155,452.394c-3.51,7.821-9.741,13.561-17.071,16.631c2.57,7.511,2.42,15.981-1.1,23.802
		c-7.341,16.361-26.562,23.662-42.913,16.311c-13.331-5.98-20.642-19.852-18.921-33.623L256,422.062l-76.386-34.863l-66.755-30.462
		c-9.151,10.441-24.382,14.181-37.703,8.191c-16.361-7.351-23.662-26.562-16.311-42.923c3.51-7.821,9.741-13.561,17.071-16.631
		c-2.57-7.511-2.42-15.981,1.1-23.802c7.341-16.361,26.562-23.662,42.913-16.311c13.331,5.98,20.642,19.852,18.921,33.633
		L256,352.347l76.386,34.853l66.755,30.462c9.151-10.441,24.382-14.181,37.703-8.191
		C453.205,416.822,460.506,436.033,453.155,452.394z"/>
	<path style="fill:#FFDBA9;" d="M436.844,364.928c-13.321,5.99-28.552,2.25-37.703-8.191l-66.755,30.462L256,422.062
		l-117.149,53.454c1.72,13.771-5.59,27.642-18.921,33.623c-16.351,7.351-35.573,0.05-42.913-16.311
		c-3.52-7.821-3.67-16.291-1.1-23.802c-7.331-3.07-13.561-8.811-17.071-16.631c-7.351-16.361-0.05-35.573,16.311-42.923
		c13.321-5.99,28.552-2.25,37.703,8.191l66.755-30.462L256,352.347l117.149-53.454c-1.72-13.781,5.59-27.652,18.921-33.633
		c16.351-7.351,35.573-0.05,42.913,16.311c3.52,7.821,3.67,16.291,1.1,23.802c7.331,3.07,13.561,8.811,17.071,16.631
		C460.506,338.366,453.205,357.577,436.844,364.928z"/>
</g>
<g>
	<path style="fill:#FFC473;" d="M343.057,276.691H256V0c70.775,0,128.35,57.574,128.35,128.35c0,36.053-14.961,70.035-41.293,94.317
		V276.691z"/>
	<path style="fill:#FFC473;" d="M453.155,452.394c-3.51,7.821-9.741,13.561-17.071,16.631c2.57,7.511,2.42,15.981-1.1,23.802
		c-7.341,16.361-26.562,23.662-42.913,16.311c-13.331-5.98-20.642-19.852-18.921-33.623L256,422.062v-69.715l117.149-53.454
		c-1.72-13.781,5.59-27.652,18.921-33.633c16.351-7.351,35.573-0.05,42.913,16.311c3.52,7.821,3.67,16.291,1.1,23.802
		c7.331,3.07,13.561,8.811,17.071,16.631c7.351,16.361,0.05,35.573-16.311,42.923c-13.321,5.99-28.552,2.25-37.703-8.191
		l-66.755,30.462l66.755,30.462c9.151-10.441,24.382-14.181,37.703-8.191C453.205,416.822,460.506,436.033,453.155,452.394z"/>
</g>
<rect x="208.546" y="225.537" style="fill:#FF8900;" width="30.002" height="51.154"/>
<rect x="273.451" y="225.537" style="fill:#C06100;" width="30.002" height="51.154"/>
<circle style="fill:#9A4C00;" cx="210.056" cy="129.34" r="25.336"/>
<circle style="fill:#703700;" cx="301.943" cy="129.34" r="25.336"/>
<g>
</g>
<g>
</g>
<g>
</g>
<g>
</g>
<g>
</g>
<g>
</g>
<g>
</g>
<g>
</g>
<g>
</g>
<g>
</g>
<g>
</g>
<g>
</g>
<g>
</g>
<g>
</g>
<g>
</g>
</svg>
