<svg xmlns="http://www.w3.org/2000/svg" viewBox="0 0 512 512" width="512" height="512">
	<defs>
		<image width="512" height="512" id="img1"/>
	</defs>
	<style>
		tspan { white-space:pre }
		.shp0 { fill: #c6c5ca } 
		.shp1 { fill: #898890 } 
		.shp2 { fill: #ffffff } 
	</style>
	<path id="Layer" class="shp0" d="M462 257C462 370.22 370.22 462 257 462C143.78 462 52 370.22 52 257C52 143.78 143.78 52 257 52C370.22 52 462 143.78 462 257Z" />
	<path id="Layer" class="shp1" d="M76.75 257C76.75 147.93 161.92 58.76 269.37 52.37C265.28 52.12 261.16 52 257 52C143.78 52 52 143.78 52 257C52 370.22 143.78 462 257 462C261.16 462 265.28 461.88 269.37 461.63C161.92 455.24 76.75 366.07 76.75 257Z" />
	<path id="Layer" class="shp2" d="M334.43 431.12L329.41 419.81C360.32 406.07 386.47 384.1 405.05 356.29L415.33 363.16C395.46 392.93 367.49 416.42 334.43 431.12L334.43 431.12ZM419.91 355.96L409.32 349.56C411.37 346.17 413.34 342.65 415.16 339.12L426.16 344.81C424.2 348.59 422.11 352.33 419.91 355.96ZM429.9 337.14L418.67 331.95C420.33 328.36 421.9 324.65 423.33 320.93L434.88 325.37C433.35 329.33 431.68 333.29 429.9 337.14Z" />
	<use id="lightning (1)" href="#img1" transform="matrix(1,0,0,1,0,0)"/>
</svg>