<?xml version="1.0" encoding="UTF-8"?>
<!-- Generator: Adobe Illustrator 26.2.1, SVG Export Plug-In . SVG Version: 6.00 Build 0)  -->
<svg version="1.1" id="Layer_1" xmlns="http://www.w3.org/2000/svg" xmlns:xlink="http://www.w3.org/1999/xlink" x="0px" y="0px" viewBox="0 0 512 512" style="enable-background:new 0 0 512 512;" xml:space="preserve">
<style type="text/css">
	.st0{fill:#594333;}
	.st1{fill:#3F2F25;}
	.st2{fill:#FFCA10;}
	.st3{fill:#3E3D42;}
	.st4{fill:#FFA304;}
</style>
<path class="st0" d="M318.1,145.3c-0.6-0.8-1.2-1.6-1.8-2.4c-2.7-3.4-7.6-4-11-1.4c-9.8,7.4-17,13.5-20.1,16.1l-39.1,8.6  c-0.6,0.1-1.2,0.3-1.8,0.6L197,189.6l-46.3,16.8c-3.8,1.4-6,5.4-5,9.3l10.7,46c0.6,2.8,2.7,5,5.5,5.8l79.1,23.6  c0.4,0.1,0.8,0.2,1.2,0.3c0.4,0.1,0.7,0.1,1.1,0.1l76.4-0.3c2.8,0,5.4-1.5,6.9-3.9C352.7,242.4,349.4,186.7,318.1,145.3z"/>
<path class="st1" d="M317.3,291.8c10.5-15.1,17.2-35.3,19.9-54.8c5.1-36.7-7-71.8-30.1-97.2c-8.3,6.2-14.7,11.6-18.3,14.6  c2.3,2.5,4.5,5.1,6.6,7.8c15.6,20.6,22.2,46,18.7,71.6c-3,21.9-19.3,42.8-34,57.2L317.3,291.8z"/>
<path class="st0" d="M463,251.9l-31.1-51.3c-0.4-0.6-0.9-1.2-1.4-1.6c-2-1.6-50.5-38.4-78.7-41.1c-5.2-0.5-11,0.2-17.4,2.1  c-1.7,0.5-3.1,1.8-3.8,3.5c-0.7,1.7-0.5,3.5,0.4,5.1c17.6,29.5,20.5,66.2,7.8,98.3c-0.7,1.8-0.5,3.8,0.6,5.4s2.9,2.5,4.8,2.5h2  l24.5,15.3c0.7,0.4,1.4,0.7,2.2,0.8c19.5,3,32.9,5,42.1,6.3c18.9,2.6,20.5,2.3,21.3,2.2c3.1-0.6,5.2-1.8,16.6-22.5  c5.3-9.6,10.3-19.2,10.3-19.3C464.1,255.8,464,253.7,463,251.9z"/>
<path class="st1" d="M463,251.9l-31.1-51.3c-0.4-0.6-0.9-1.2-1.4-1.6c-2-1.6-50.5-38.4-78.7-41.1c-3.6-0.3-7.6-0.1-11.8,0.7  c27.1,10.7,58.9,35,60.6,36.2c0.6,0.4,1.1,1,1.4,1.6l31.1,51.3c1,1.7,1.1,3.9,0.2,5.7c0,0.1-5,9.7-10.3,19.3  c-11.4,20.7-13.6,21.9-16.6,22.5c-0.5,0.1-1.5,0.3-8.9-0.6c7.1,1.1,12.9,1.9,17.6,2.5c18.9,2.6,20.5,2.3,21.3,2.2  c3.1-0.6,5.2-1.8,16.6-22.5c5.3-9.6,10.3-19.2,10.3-19.3C464.1,255.8,464,253.7,463,251.9z"/>
<path class="st2" d="M246.6,61.9c-86.8-12-167.1,48.9-179.1,135.6s48.9,167.1,135.6,179.1c86.8,12,167.1-48.9,179.1-135.6  S333.4,73.9,246.6,61.9z M209.4,331c-61.7-8.5-104.8-65.5-96.3-127.2S178.6,99,240.3,107.6s104.8,65.5,96.3,127.2  S271.1,339.5,209.4,331z"/>
<path class="st3" d="M422.2,428.3l-59-77.8c-2.5-3.3-7.2-4-10.5-1.5l-37.6,28.5c-1.6,1.2-2.6,3-2.9,5s0.2,4,1.4,5.6l59,77.8  c5,6.6,12.3,10.9,20.5,12s16.4-1,23-6C429.8,461.5,432.5,442,422.2,428.3z"/>
<path class="st4" d="M373.1,342.9l-21.3-28.2c15.8-20.9,26.6-46,30.4-73.7c12-86.8-48.9-167.1-135.6-179.1  c-6.2-0.9-12.3-1.3-18.4-1.5c76.9,19.9,128.6,94.9,117.5,175.5S264.5,374.8,185,373.1c5.9,1.5,11.9,2.7,18.1,3.6  c27.7,3.8,54.8,0.2,79.2-9.3l21.3,28.2c1.3,1.6,3.1,2.6,5,2.9s3.9-0.2,5.6-1.5l57.5-43.6C375,350.9,375.6,346.2,373.1,342.9z"/>
<path class="st1" d="M287,285.8c0.4-0.7,20.1-16.8,18.6-20.7c-23.2-5.3-46.2-25.6-88.8-9.5c-21.3,8-45.5-15.8-47.4-17.7  c-13.3-14.1-20.4-21.4-23.8-22.9c0,0.2,0.1,0.5,0.1,0.7l10.7,46c0.6,2.8,2.7,5,5.5,5.8l79.1,23.6c0.4,0.1,0.8,0.2,1.2,0.3  c0.4,0.1,0.7,0.1,1.1,0.1l38-0.2C283.7,289.8,285.7,287.9,287,285.8z"/>
</svg>