<svg xmlns="http://www.w3.org/2000/svg" viewBox="0 0 497 496" width="497" height="496">
	<defs>
		<image width="512" height="512" id="img1"/>
	</defs>
	<style>
		tspan { white-space:pre }
		.shp0 { fill: #9e4520 } 
		.shp1 { fill: #a7541e } 
		.shp2 { fill: #b7771a } 
		.shp3 { fill: #b0681d } 
		.shp4 { fill: #ba9e62 } 
	</style>
	<path id="Layer" class="shp0" d="M242.1 277.39L251.85 298.19C259.49 314.47 270.49 331.79 268.38 350.6C266.71 365.5 254.41 373.12 244.63 382.9C242.12 385.42 238.71 386.83 235.16 386.83L233.29 386.83C228.29 386.84 223.71 384.05 221.42 379.61C219.13 375.17 219.52 369.83 222.41 365.76C227.69 359.99 231.99 353.4 235.16 346.25C238.15 336.4 231.52 329.87 227.34 321.72L218.35 304.19L206 280.12L181.99 280.12L169.66 304.19L160.65 321.72C156.47 329.87 149.84 336.4 152.84 346.25C156 353.4 160.31 359.99 165.59 365.76C168.49 369.83 168.87 375.17 166.57 379.61C164.28 384.05 159.7 386.84 154.71 386.83L152.85 386.83C149.29 386.83 145.88 385.42 143.37 382.9C133.6 373.12 121.29 365.5 119.62 350.6C117.51 331.79 128.51 314.47 136.15 298.19L145.91 277.39L242.1 277.39Z" />
	<path id="Layer" class="shp1" d="M266.84 244.71L275.98 248.18L276.11 248.18L373.16 284.86C379.61 285.9 384.35 291.46 384.36 298C384.36 298.73 384.3 299.47 384.16 300.2C383.59 303.69 381.65 306.81 378.78 308.88C375.89 310.95 372.31 311.78 368.82 311.21L247.23 268.78L140.77 268.78L19.18 311.21C15.69 311.78 12.1 310.95 9.23 308.88C6.35 306.81 4.41 303.69 3.84 300.2C3.71 299.47 3.64 298.73 3.64 298C3.65 291.46 8.4 285.9 14.85 284.86L111.89 248.18L112.02 248.18L121.16 244.71L266.84 244.71Z" />
	<path id="Layer" class="shp0" d="M287.85 220.89C310.66 219.69 343.68 216.96 350.81 212.89L367.48 203.35C371.63 200.71 376.91 200.56 381.2 202.97C385.49 205.38 388.1 209.96 388 214.89C387.89 219.8 385.09 224.27 380.69 226.49L357.89 239.57C349.34 244.44 298.39 247.37 276.11 248.18L111.89 248.18C89.61 247.37 38.65 244.44 30.12 239.57L7.31 226.49C2.92 224.27 0.11 219.8 0 214.89C-0.1 209.96 2.51 205.38 6.8 202.97C11.09 200.56 16.36 200.71 20.51 203.35L37.19 212.89C44.33 216.96 77.34 219.69 100.15 220.89L287.85 220.89Z" />
	<path id="Layer" class="shp1" d="M94.81 206.22C94.51 206.17 94.23 206.09 93.95 205.95L20.91 177.61C16.58 176 13.46 172.17 12.77 167.6L4.91 116.58C2.1 98.26 5.58 79.52 14.78 63.42C15.92 61.32 18.12 60.01 20.51 60.02C22.3 59.98 24.02 60.68 25.3 61.94C26.57 63.19 27.27 64.91 27.26 66.7C27.24 85.37 30.61 103.9 37.2 121.38L39.86 128.58C44.33 140.59 84.49 164.87 98.36 176.28L289.65 176.28C303.52 164.87 343.68 140.59 348.15 128.58L350.81 121.38C357.39 103.9 360.76 85.37 360.75 66.7C360.73 64.91 361.43 63.19 362.7 61.94C363.97 60.68 365.69 59.99 367.48 60.02C369.88 60.01 372.08 61.32 373.22 63.42C382.42 79.52 385.9 98.26 383.09 116.58L375.21 167.6C374.53 172.17 371.41 176 367.08 177.61L294.04 205.95C293.77 206.09 293.48 206.17 293.18 206.22L94.81 206.22Z" />
	<path id="Layer" class="shp1" d="M102.02 169.27C40.66 71.96 42.59 39.88 95.88 13.26C162.58 -20.08 169.25 19.93 169.25 19.93C162.91 22.07 156.57 24.14 150.24 26.27C142.17 28.94 128.97 30.61 125.9 39.67C124.54 43.13 125.26 47.05 127.74 49.81C130.23 52.56 134.06 53.68 137.64 52.68C150.64 49.22 163.43 44.97 175.92 39.95C180.92 38.28 189.26 66.62 155.91 79.97C122.56 93.3 95.88 79.97 102.55 106.64L131.63 142.06L256.35 142.06L285.44 106.64C292.11 79.97 265.43 93.3 232.08 79.97C198.73 66.62 207.07 38.28 212.07 39.95C224.56 44.97 237.35 49.22 250.35 52.68C253.93 53.68 257.76 52.56 260.25 49.81C262.73 47.05 263.44 43.13 262.09 39.67C259.02 30.61 245.82 28.94 237.75 26.27C231.41 24.14 225.07 22.07 218.74 19.93C218.74 19.93 225.41 -20.08 292.11 13.26C345.4 39.88 347.33 71.96 285.97 169.27L102.02 169.27Z" />
	<path id="Layer" class="shp2" d="M194 126.72C215.76 126.45 237.22 131.73 256.37 142.06C268.44 148.4 278.65 157.78 285.99 169.27C287.42 171.49 288.64 173.84 289.65 176.28C292.54 182.72 294.04 189.69 294.04 196.75C294.03 199.93 293.73 203.09 293.18 206.22C292.15 211.36 290.35 216.3 287.85 220.89C282.8 230.36 275.6 238.52 266.84 244.71C261.26 248.89 255.24 252.44 248.89 255.31L247.36 255.31L247.36 266.79C247.36 267.45 247.3 268.12 247.23 268.78C246.69 272.2 244.85 275.29 242.09 277.39C239.78 279.17 236.94 280.13 234.02 280.12L153.98 280.12C151.06 280.13 148.23 279.17 145.91 277.39C143.15 275.29 141.32 272.2 140.78 268.78C140.71 268.12 140.65 267.45 140.65 266.79L140.65 255.31L139.11 255.31C132.76 252.44 126.74 248.89 121.17 244.71C112.4 238.52 105.21 230.36 100.16 220.89C97.65 216.3 95.85 211.36 94.82 206.22C94.26 203.09 93.98 199.93 93.95 196.75C93.97 189.69 95.47 182.72 98.36 176.28C99.37 173.84 100.6 171.49 102.03 169.27C109.36 157.78 119.57 148.4 131.64 142.06C150.78 131.73 172.25 126.45 194 126.72L194 126.72Z" />
	<path id="Layer" class="shp3" d="M294.04 196.75C294.03 199.93 293.73 203.09 293.18 206.22C292.15 211.36 290.35 216.3 287.85 220.89C282.8 230.36 275.6 238.52 266.84 244.71C261.26 248.89 255.24 252.44 248.89 255.31L247.36 255.31L247.36 266.79C247.36 267.45 247.3 268.12 247.23 268.78C246.69 272.2 244.85 275.29 242.09 277.39C239.78 279.17 236.94 280.13 234.02 280.12L194 280.12L194 126.72C215.76 126.45 237.22 131.73 256.36 142.06C268.43 148.4 278.64 157.78 285.98 169.27C287.41 171.49 288.63 173.84 289.64 176.28C292.54 182.72 294.04 189.69 294.04 196.75L294.04 196.75Z" />
	<g id="Layer">
		<path id="Layer" class="shp4" d="M173.99 166.74C173.99 170.42 170.99 173.41 167.31 173.41C163.63 173.41 160.65 170.42 160.65 166.74C160.65 163.05 163.63 160.07 167.31 160.07C170.99 160.07 173.99 163.05 173.99 166.74Z" />
		<path id="Layer" class="shp4" d="M227.36 166.74C227.36 170.42 224.37 173.41 220.69 173.41C217 173.41 214.01 170.42 214.01 166.74C214.01 163.05 217 160.07 220.69 160.07C224.37 160.07 227.36 163.05 227.36 166.74L227.36 166.74Z" />
	</g>
	<use id="stopwatch" href="#img1" transform="matrix(0.482,0,0,0.482,250,249)"/>
</svg>