<svg xmlns="http://www.w3.org/2000/svg" viewBox="0 0 500 500"><defs><style>.a{fill:#898890;}.b{fill:#787680;}</style></defs><title>smithing</title><path class="a" d="M189.65,293H310.34V382.8H189.65Z"/><path class="b" d="M34.49,198.33H96.07V112.12H8.58A8.63,8.63,0,0,0,0,120.8v43.1A34.49,34.49,0,0,0,34.49,198.33Z"/><path class="b" d="M146.55,293.16a8.62,8.62,0,0,0,8.62,8.62H344.83a8.61,8.61,0,0,0,8.61-8.62V220.22H146.55Z"/><path class="b" d="M146.55,370.74a34.5,34.5,0,0,0-34.49,34.49v5a12.12,12.12,0,0,0,12.15,12.14H375.78a12.12,12.12,0,0,0,12.15-12.14v-5a34.49,34.49,0,0,0-34.49-34.49H146.55Z"/><path class="a" d="M98.36,77.64A12.12,12.12,0,0,0,86.21,89.78V224.19a8.63,8.63,0,0,0,8.61,8.63H370.69A129.33,129.33,0,0,0,500,103.51V89.78a12.12,12.12,0,0,0-12.15-12.14Z"/></svg>